<svg width="62" height="62" viewBox="0 0 62 62" fill="none" xmlns="http://www.w3.org/2000/svg">
<path d="M50.6141 39.459C49.1991 40.1172 47.7751 40.7573 46.3765 41.4487C46.0952 41.5878 45.7603 41.8991 45.7191 42.1716C45.6674 42.5133 45.7975 42.9775 46.0217 43.2433C46.3528 43.6359 46.8316 43.5423 47.2914 43.3169C48.6032 42.674 49.9296 42.0608 51.2946 41.4869C51.5003 42.595 51.6617 43.652 51.823 44.7091C50.861 44.6588 49.8995 44.5922 48.9369 44.5634C48.168 44.5404 47.7154 44.9335 47.709 45.5708C47.7026 46.2023 48.1545 46.5816 48.9133 46.625C49.8149 46.6765 50.7149 46.7555 51.6638 46.8948C51.5463 47.9146 51.3807 48.8621 51.215 49.8097C48.1976 49.434 45.5893 50.2736 43.49 52.4971C42.2052 53.858 41.3809 55.4425 41.535 57.3905C41.5678 57.8054 41.6808 58.2139 41.7682 58.6862C34.7032 60.5493 27.6507 60.5249 20.6355 58.7134C20.7054 57.8395 20.7717 57.0103 20.872 56.0904C21.5156 51.3926 18.8477 47.6272 14.3461 46.7279C14.2317 46.705 14.1386 46.5751 14.0356 46.4952C14.5232 46.2339 14.7346 45.8358 14.5726 45.2969C14.4116 44.7614 14.0145 44.5198 13.4671 44.5601C11.8225 44.6813 10.1789 44.8153 8.39539 44.9552C8.61463 43.6613 8.84328 42.3119 9.09299 40.8382C9.98376 41.114 10.7864 41.2915 11.5292 41.609C12.6904 42.1052 13.8209 42.6773 14.9455 43.2542C15.6356 43.6082 16.2015 43.5583 16.5347 43.027C16.8694 42.4932 16.6955 41.9217 16.0511 41.4986C14.3351 40.3717 12.4463 39.6467 10.4742 39.1179C10.2852 39.0672 10.0974 39.0119 9.82997 38.9365C10.2787 38.1157 10.6561 37.3119 11.1393 36.5777C11.5226 35.9956 11.5617 35.4626 11.3548 34.8165C10.382 31.7789 9.66366 28.684 9.52687 25.4853C9.48935 24.6079 9.5584 23.7111 9.7054 22.8447C9.87464 21.8473 10.1804 21.7039 11.1869 21.9052C11.3443 21.9367 11.4989 21.9817 11.7055 22.0801C11.8291 22.2043 11.8944 22.2811 11.976 22.3314C13.9167 23.5264 15.8682 24.7044 17.7943 25.9224C18.2242 26.1942 18.4857 26.0516 18.7764 25.769C19.2964 26.1086 19.8393 26.4183 20.3302 26.7958C20.8564 27.2006 21.3555 27.2284 21.9507 26.9543C25.0477 25.5278 28.3026 24.845 31.7628 24.9944C30.6485 27.8565 30.981 30.4935 32.9906 32.7694C35.0147 35.0619 37.6247 35.8129 40.5557 34.8882C43.4539 33.974 45.1014 31.895 45.6075 28.9115C46.942 30.1458 48.2405 31.359 49.5368 32.6231C49.3321 33.4644 49.1538 34.2619 48.9173 35.0419C48.7912 35.458 48.8398 35.7799 49.044 36.1712C49.6054 37.2473 50.0957 38.3605 50.6141 39.459ZM35.2073 45.3678C35.6439 43.6892 34.1895 42.5517 33.0957 42.5133C31.8064 42.4681 30.5104 42.4404 29.2243 42.5191C27.4808 42.6258 26.4076 44.5994 27.4124 45.8974C28.1187 46.8099 29.0497 47.5471 29.8635 48.3791C29.9957 48.5143 30.1088 48.7334 30.1136 48.9168C30.1383 49.8643 30.1363 50.813 30.1219 51.7609C30.1037 52.9503 29.2056 53.854 28.065 53.855C26.9288 53.8561 26.0457 52.9562 26.01 51.7613C25.998 51.3588 26.0279 50.9493 25.963 50.5555C25.8719 50.0019 25.4173 49.6933 24.8688 49.7378C24.3566 49.7794 23.9787 50.1406 23.9562 50.686C23.9329 51.249 23.9241 51.8192 23.9854 52.3779C24.2227 54.5392 26.429 56.1978 28.5759 55.8851C29.6064 55.735 30.4527 55.2546 31.1757 54.5397C33.3665 56.8149 36.7647 56.0975 38.0051 53.5477C38.4374 52.6592 38.4194 51.7111 38.3891 50.763C38.369 50.1342 37.9474 49.7277 37.361 49.7304C36.779 49.733 36.3651 50.1435 36.3348 50.7724C36.3165 51.1549 36.3459 51.5399 36.3223 51.9218C36.2548 53.0135 35.3037 53.8829 34.2262 53.855C33.1266 53.8265 32.2302 52.9421 32.2142 51.8437C32.1999 50.8554 32.1946 49.8662 32.2257 48.8788C32.2316 48.6925 32.4008 48.4882 32.5402 48.3333C33.4081 47.3685 34.2889 46.4154 35.2073 45.3678ZM12.9955 32.3097C14.7486 30.3122 16.7983 28.6675 19.1643 27.2261C16.4409 25.4714 13.8946 23.6219 10.6451 22.8083C10.2458 26.5466 11.082 29.9636 11.9926 33.4741C12.3626 33.0435 12.6504 32.7086 12.9955 32.3097ZM25.8018 39.6609C24.8629 37.4068 23.0867 36.1642 20.7356 36.3178C19.6292 36.3901 18.5314 36.7213 17.4509 37.0135C16.8135 37.186 16.5573 37.7962 16.7618 38.3467C16.9661 38.8968 17.5223 39.1351 18.1585 38.9396C18.5042 38.8335 18.8436 38.706 19.1917 38.6092C21.7108 37.9091 22.9048 38.4583 24.0114 40.8183C24.24 41.3059 24.7649 41.5484 25.2699 41.3996C25.7568 41.2561 26.0651 40.738 25.9654 40.213C25.9356 40.0559 25.8757 39.9045 25.8018 39.6609ZM38.5897 36.5714C36.9653 37.1705 35.9303 38.333 35.3954 39.9542C35.1701 40.637 35.4347 41.2115 36.0064 41.3939C36.5945 41.5816 37.1008 41.2855 37.3505 40.6075C37.3713 40.5509 37.3906 40.4938 37.4112 40.4371C37.8836 39.1309 38.9084 38.3686 40.295 38.3783C40.8911 38.3825 41.4916 38.4953 42.0801 38.6098C42.4912 38.6898 42.88 38.8782 43.2884 38.9791C43.8344 39.1139 44.3455 38.8472 44.5283 38.3713C44.7158 37.8831 44.53 37.2893 44.0344 37.0873C42.3091 36.384 40.542 35.9843 38.5897 36.5714Z" fill="#F4F4F4"/>
<path d="M44.1898 22.8668C43.2494 23.4883 42.3194 24.1267 41.3599 24.7172C41.1667 24.8362 40.822 24.8679 40.6142 24.7805C37.3341 23.4015 33.9219 22.7664 30.3666 22.88C27.4176 22.9742 24.5787 23.5766 21.8713 24.749C21.4647 24.925 21.2008 24.8882 20.8449 24.6477C19.4957 23.736 18.1198 22.8638 16.4999 21.8119C17.2134 21.2013 17.8845 20.6269 18.6116 20.0839C20.6063 21.8574 22.8271 22.3076 25.226 21.3298C27.6787 20.3301 28.9427 18.4072 29.075 15.754C31.2756 15.468 33.4528 15.6323 35.6459 16.1471C34.8001 18.1103 35.6581 20.1396 37.5651 20.6643C38.7737 20.9969 40.2436 20.6408 41.2051 19.1431C41.7547 19.6669 42.3238 20.1294 42.7643 20.6925C43.2964 21.3727 43.7195 22.1382 44.1898 22.8668Z" fill="#9D9D9D"/>
<path d="M45.5715 28.8904C45.1014 31.895 43.4539 33.974 40.5557 34.8882C37.6247 35.8129 35.0147 35.0619 32.9906 32.7694C30.981 30.4935 30.6485 27.8565 31.8179 25.0012C34.6532 25.0064 37.3668 25.6023 39.9337 26.7707C40.8358 27.1813 41.5626 27.2363 42.374 26.5883C43.1396 25.977 44.0046 25.4901 44.896 24.9763C45.0766 25.2695 45.187 25.5348 45.2728 25.8327C44.5881 26.3085 43.9278 26.7516 43.2448 27.2101C44.0568 27.7966 44.8142 28.3435 45.5715 28.8904Z" fill="#38474F"/>
<path d="M11.4428 56.559C11.163 56.0032 10.7263 55.8305 10.208 55.9733C9.67633 56.1198 9.45573 56.5413 9.45619 57.0824C9.45693 57.9432 9.45639 58.8041 9.45639 59.6969C8.59973 59.5176 7.80334 59.2081 7.13981 58.6222C6.33072 57.9077 6.22514 57.0041 6.51347 56.0242C7.23361 53.5768 10.0607 51.7036 12.8584 51.8088C15.4571 51.9065 18.117 53.914 18.6567 56.1847C18.9379 57.3677 18.6329 58.265 17.6139 58.8983C17.0284 59.2622 16.3582 59.4897 15.6513 59.8129C15.6513 58.8293 15.6575 57.9893 15.6495 57.1494C15.642 56.3545 15.2769 55.9306 14.6239 55.9346C13.9841 55.9385 13.601 56.3842 13.5881 57.1599C13.5784 57.7444 13.5949 58.3293 13.5827 58.9137C13.5682 59.6014 13.1812 60.0282 12.583 60.0424C11.9768 60.0567 11.5449 59.5981 11.5218 58.8968C11.4966 58.1326 11.4845 57.368 11.4428 56.559Z" fill="#9C9C9C"/>
<path d="M52.8833 59.2181C52.8815 58.5332 52.8885 57.8482 52.8755 57.1636C52.8605 56.3777 52.4852 55.9405 51.845 55.9347C51.1947 55.9287 50.8256 56.3546 50.8124 57.1453C50.8027 57.7294 50.8257 58.3144 50.8034 58.8978C50.7757 59.622 50.3578 60.0568 49.7457 60.0419C49.1554 60.0276 48.7584 59.6066 48.732 58.915C48.7083 58.2913 48.7373 57.6657 48.7196 57.0417C48.6998 56.344 48.3154 55.9378 47.7075 55.9347C47.1051 55.9316 46.6897 56.3359 46.6679 57.026C46.64 57.9063 46.6611 58.7882 46.6611 59.8297C45.9203 59.4646 45.181 59.1943 44.5485 58.7663C43.6314 58.1456 43.3993 57.2179 43.6803 56.1512C44.4207 53.3401 48.0892 51.1891 50.928 51.9956C51.0781 52.1486 51.1692 52.2518 51.2733 52.3398C52.511 53.386 53.544 54.5818 53.8296 56.2346C54.0251 57.3662 53.8735 58.4381 52.8833 59.2181Z" fill="#9C9C9C"/>
<path d="M30.3073 10.6154C29.8267 8.10555 30.3723 5.912 32.0919 4.07439C33.8607 2.18428 36.0734 1.73516 38.4591 2.51322C39.7011 2.91826 40.8479 3.64314 41.9957 4.29719C42.5997 4.64134 42.6852 5.32328 42.32 5.80751C41.9709 6.27042 41.3905 6.30714 40.8054 5.97463C39.9337 5.47926 39.079 4.91232 38.145 4.57621C35.3993 3.58818 32.9661 5.01792 32.3288 7.87594C32.0922 8.93671 32.2919 9.95159 32.488 10.9844C32.6448 11.8101 32.7228 12.6508 32.8424 13.5344C32.1092 13.5344 31.4553 13.5344 30.806 13.5344C30.6409 12.562 30.48 11.6142 30.3073 10.6154Z" fill="#9C9C9C"/>
<path d="M13.9852 46.4905C14.1386 46.5752 14.2317 46.7051 14.3461 46.7279C18.8477 47.6272 21.5156 51.3927 20.8713 56.0344C20.478 55.2701 20.2115 54.412 19.7447 53.6821C17.626 50.3686 13.687 48.9628 9.95065 50.154C9.48292 50.3031 9.27026 50.1961 9.15606 49.7663C9.00182 49.186 8.85629 48.6033 8.73541 47.9365C9.42769 47.5273 10.0916 47.2032 10.7555 46.8791C11.8152 46.748 12.875 46.6169 13.9852 46.4905Z" fill="#384850"/>
<path d="M29.0216 15.7493C28.9427 18.4072 27.6787 20.3301 25.226 21.3298C22.8271 22.3076 20.6063 21.8574 18.6541 20.0719C19.4709 19.4085 20.2526 18.7053 21.1412 18.1844C23.553 16.7705 26.1826 15.9917 29.0216 15.7493Z" fill="#37474F"/>
<path d="M50.6608 39.4594C50.0957 38.3605 49.6054 37.2473 49.044 36.1712C48.8399 35.7799 48.7912 35.458 48.9174 35.0419C49.1538 34.2619 49.3321 33.4644 49.5721 32.6411C49.8353 32.8796 50.0611 33.1511 50.3669 33.5189C51.2488 29.9545 52.1438 26.5342 51.6913 22.8566C51.2774 22.9457 50.9691 23.012 50.6501 23.023C50.5869 22.6726 50.5344 22.3775 50.482 22.0825C52.1675 21.5138 52.6618 21.8365 52.8001 23.6203C53.0387 26.6981 52.3888 29.6659 51.6546 32.6197C51.4465 33.4573 51.1921 34.2845 50.9301 35.1073C50.7778 35.5858 50.8418 35.9924 51.1011 36.4236C51.5863 37.2306 52.0236 38.0664 52.503 38.9299C51.8535 39.1215 51.2805 39.2906 50.6608 39.4594Z" fill="#CDD4D8"/>
<path d="M41.1677 19.1264C40.2436 20.6408 38.7737 20.997 37.5651 20.6644C35.6582 20.1396 34.8001 18.1103 35.6914 16.1602C37.7674 16.507 39.6733 17.302 41.4818 18.3872C41.3718 18.6709 41.2697 18.8986 41.1677 19.1264Z" fill="#38474F"/>
<path d="M52.8592 59.2528C53.8735 58.4381 54.0251 57.3662 53.8296 56.2345C53.544 54.5817 52.511 53.3859 51.2733 52.3397C51.1692 52.2518 51.0781 52.1485 50.9761 52.0118C53.0303 52.0758 55.6475 54.4557 55.9358 56.4716C56.0903 57.5522 55.6826 58.383 54.7778 58.928C54.2033 59.2741 53.5527 59.4937 52.8351 59.8153C52.8351 59.5463 52.8351 59.4169 52.8592 59.2528Z" fill="#6E6E6E"/>
<path d="M51.862 44.7359C51.6617 43.652 51.5003 42.5949 51.3392 41.4878C51.9092 41.2543 52.4789 41.0708 53.2192 40.8323C53.4727 42.2561 53.7143 43.6134 53.9706 45.0529C53.1909 44.9436 52.5459 44.8531 51.862 44.7359Z" fill="#CBD4D8"/>
<path d="M50.4338 22.0889C50.5344 22.3775 50.5869 22.6725 50.6122 23.0423C50.14 23.2962 49.6759 23.4393 49.2532 23.6614C47.9262 24.3583 46.6148 25.0849 45.2973 25.8C45.187 25.5348 45.0766 25.2695 44.9379 24.9715C46.6037 23.7383 48.4209 22.7748 50.4338 22.0889Z" fill="#F1EFEF"/>
<path d="M51.2503 49.8366C51.3807 48.8621 51.5463 47.9145 51.7102 46.9126C52.3829 46.9389 53.0573 47.0196 53.8908 47.1193C53.5899 48.2349 53.3128 49.2624 53.0322 50.3026C52.3692 50.136 51.8274 49.9998 51.2503 49.8366Z" fill="#CCD4D8"/>
<path d="M41.2051 19.1431C41.2698 18.8986 41.3718 18.6708 41.5081 18.4192C43.1185 19.3172 44.4771 20.4827 45.6096 21.9998C45.1409 22.2944 44.7047 22.5685 44.2291 22.8547C43.7196 22.1382 43.2965 21.3727 42.7644 20.6925C42.3239 20.1294 41.7547 19.6669 41.2051 19.1431Z" fill="#6F6F6F"/>
<path d="M18.7584 25.7329C18.4857 26.0516 18.2243 26.1942 17.7943 25.9224C15.8682 24.7044 13.9167 23.5264 11.976 22.3313C11.8944 22.2811 11.8291 22.2043 11.749 22.0991C13.0531 22.638 14.3937 23.1606 15.6668 23.8148C16.7323 24.3623 17.7188 25.0636 18.7584 25.7329Z" fill="#C9D1D5"/>
<path d="M10.7027 46.8722C10.0916 47.2031 9.42768 47.5272 8.73961 47.8835C8.6464 47.6818 8.57736 47.448 8.47876 47.1141C9.25177 47.0255 9.95084 46.9455 10.7027 46.8722Z" fill="#E8E8E8"/>
<path d="M35.1864 45.4131C34.2889 46.4154 33.4081 47.3685 32.5402 48.3333C32.4008 48.4882 32.2316 48.6925 32.2257 48.8788C32.1946 49.8663 32.1999 50.8554 32.2142 51.8437C32.2302 52.9421 33.1266 53.8265 34.2262 53.855C35.3037 53.8829 36.2548 53.0135 36.3223 51.9218C36.3459 51.5399 36.3165 51.1549 36.3348 50.7724C36.3651 50.1435 36.779 49.733 37.361 49.7304C37.9474 49.7277 38.369 50.1342 38.3891 50.763C38.4194 51.7111 38.4374 52.6592 38.0051 53.5477C36.7647 56.0975 33.3665 56.8149 31.1757 54.5397C30.4527 55.2546 29.6064 55.735 28.5759 55.8851C26.429 56.1978 24.2227 54.5392 23.9854 52.3779C23.9241 51.8192 23.9329 51.249 23.9562 50.686C23.9787 50.1406 24.3566 49.7794 24.8688 49.7378C25.4173 49.6933 25.8719 50.0019 25.963 50.5555C26.0279 50.9493 25.998 51.3588 26.01 51.7613C26.0457 52.9562 26.9288 53.8561 28.065 53.8551C29.2056 53.854 30.1037 52.9503 30.1219 51.7609C30.1363 50.813 30.1383 49.8643 30.1136 48.9168C30.1088 48.7335 29.9957 48.5143 29.8635 48.3791C29.0497 47.5471 28.1187 46.8099 27.4124 45.8974C26.4076 44.5994 27.4808 42.6258 29.2243 42.5191C30.5104 42.4404 31.8064 42.4681 33.0957 42.5133C34.1895 42.5517 35.6439 43.6892 35.1864 45.4131ZM32.5801 44.5539C31.9965 44.5538 31.4129 44.5463 30.8295 44.5556C30.2768 44.5645 29.7244 44.5909 29.1719 44.6096C29.1637 44.6783 29.1555 44.747 29.1473 44.8158C29.6409 45.3394 30.1212 45.8763 30.6327 46.3818C30.9477 46.6931 31.3457 46.7095 31.6642 46.4043C32.1966 45.8941 32.6877 45.3408 33.2813 44.7162C33.0059 44.6422 32.8464 44.5993 32.5801 44.5539Z" fill="#030303"/>
<path d="M45.2728 25.8327C46.6148 25.0849 47.9262 24.3583 49.2532 23.6614C49.6759 23.4394 50.14 23.2962 50.623 23.0976C50.9691 23.012 51.2774 22.9457 51.6913 22.8566C52.1437 26.5342 51.2488 29.9545 50.3669 33.5189C50.061 33.1511 49.8353 32.8796 49.5743 32.5901C48.2405 31.359 46.942 30.1458 45.6075 28.9115C44.8142 28.3435 44.0568 27.7966 43.2448 27.2101C43.9278 26.7517 44.5881 26.3085 45.2728 25.8327Z" fill="#EF324D"/>
<path d="M12.9668 32.3416C12.6504 32.7086 12.3626 33.0435 11.9925 33.4741C11.082 29.9636 10.2458 26.5466 10.6451 22.8082C13.8946 23.6218 16.4409 25.4713 19.1642 27.2261C16.7982 28.6674 14.7486 30.3121 12.9668 32.3416Z" fill="#EF334E"/>
<path d="M25.8157 39.7057C25.8757 39.9045 25.9356 40.0559 25.9654 40.213C26.0652 40.738 25.7568 41.2561 25.2699 41.3996C24.765 41.5484 24.24 41.306 24.0114 40.8183C22.9048 38.4583 21.7108 37.9091 19.1918 38.6093C18.8436 38.706 18.5042 38.8335 18.1586 38.9397C17.5224 39.1351 16.9661 38.8968 16.7618 38.3467C16.5573 37.7962 16.8135 37.186 17.4509 37.0135C18.5314 36.7213 19.6292 36.3901 20.7356 36.3178C23.0867 36.1642 24.863 37.4068 25.8157 39.7057Z" fill="#040404"/>
<path d="M38.6369 36.5597C40.542 35.9842 42.3091 36.384 44.0344 37.0872C44.53 37.2892 44.7158 37.883 44.5283 38.3712C44.3455 38.8471 43.8344 39.1138 43.2884 38.979C42.88 38.8781 42.4912 38.6897 42.0801 38.6098C41.4916 38.4952 40.8911 38.3824 40.295 38.3782C38.9084 38.3685 37.8836 39.1308 37.4112 40.437C37.3906 40.4937 37.3713 40.5509 37.3505 40.6075C37.1008 41.2854 36.5945 41.5815 36.0064 41.3939C35.4347 41.2114 35.1701 40.6369 35.3954 39.9541C35.9303 38.3329 36.9653 37.1704 38.6369 36.5597Z" fill="#030303"/>
<path d="M32.6335 44.5552C32.8464 44.5993 33.0059 44.6421 33.2813 44.7162C32.6877 45.3408 32.1966 45.8941 31.6642 46.4043C31.3457 46.7094 30.9477 46.6931 30.6327 46.3818C30.1212 45.8763 29.6409 45.3394 29.1473 44.8157C29.1555 44.747 29.1637 44.6783 29.1719 44.6096C29.7244 44.5909 30.2768 44.5645 30.8295 44.5556C31.4129 44.5463 31.9965 44.5538 32.6335 44.5552Z" fill="#EB304B"/>
</svg>
