<svg width="59" height="59" viewBox="0 0 59 59" fill="none" xmlns="http://www.w3.org/2000/svg">
<g clip-path="url(#clip0_4_561)">
<path d="M48.7662 10.7322C45.0397 8.98866 41.0551 7.72152 36.8893 7C36.3777 7.92496 35.78 9.16906 35.3679 10.1587C30.9396 9.49277 26.552 9.49277 22.2051 10.1587C21.7931 9.16906 21.1818 7.92496 20.6657 7C16.4954 7.72152 12.5062 8.99332 8.7797 10.7414C1.26326 22.0998 -0.774327 33.176 0.244467 44.0949C5.22977 47.8178 10.0611 50.0794 14.8109 51.5593C15.9837 49.9452 17.0296 48.2294 17.9307 46.4212C16.2146 45.7691 14.571 44.9644 13.0179 44.0302C13.4299 43.725 13.833 43.4058 14.2223 43.0775C23.6948 47.508 33.9869 47.508 43.3463 43.0775C43.7402 43.4058 44.1431 43.725 44.5507 44.0302C42.993 44.969 41.3449 45.7737 39.6288 46.4258C40.5299 48.2294 41.5713 49.9499 42.7486 51.5638C47.503 50.0839 52.3388 47.8225 57.3241 44.0949C58.5195 31.4371 55.282 20.4626 48.7662 10.7322ZM19.2212 37.3799C16.3776 37.3799 14.0457 34.7252 14.0457 31.4926C14.0457 28.2599 16.3279 25.6007 19.2212 25.6007C22.1146 25.6007 24.4465 28.2552 24.3967 31.4926C24.4012 34.7252 22.1146 37.3799 19.2212 37.3799ZM38.3474 37.3799C35.5038 37.3799 33.1719 34.7252 33.1719 31.4926C33.1719 28.2599 35.454 25.6007 38.3474 25.6007C41.2407 25.6007 43.5727 28.2552 43.5229 31.4926C43.5229 34.7252 41.2407 37.3799 38.3474 37.3799Z" fill="#5865F2"/>
</g>
<defs>
<clipPath id="clip0_4_561">
<rect width="57.5688" height="57.5688" fill="white" transform="translate(0.473816 0.698364)"/>
</clipPath>
</defs>
</svg>
