<svg width="54" height="53" viewBox="0 0 54 53" fill="none" xmlns="http://www.w3.org/2000/svg">
<g clip-path="url(#clip0_4_566)">
<path fill-rule="evenodd" clip-rule="evenodd" d="M44.4754 12.4255C44.4754 14.171 43.0604 15.5856 41.3153 15.5856C39.5702 15.5856 38.1551 14.171 38.1551 12.4255C38.1551 10.68 39.5702 9.26533 41.3153 9.26533C43.0608 9.26533 44.4754 10.68 44.4754 12.4255ZM27.2579 35.2609C22.4099 35.2609 18.4799 31.3309 18.4799 26.4828C18.4799 21.6348 22.4099 17.7048 27.2579 17.7048C32.106 17.7048 36.036 21.6348 36.036 26.4828C36.036 31.3309 32.106 35.2609 27.2579 35.2609ZM27.2579 12.9596C19.7892 12.9596 13.7347 19.0141 13.7347 26.4828C13.7347 33.9516 19.7892 40.0061 27.2579 40.0061C34.7267 40.0061 40.7812 33.9516 40.7812 26.4828C40.7812 19.0141 34.7267 12.9596 27.2579 12.9596ZM27.2579 4.89337C34.2897 4.89337 35.1225 4.92011 37.8992 5.04685C40.4668 5.16412 41.8613 5.59288 42.7892 5.95375C44.0183 6.43148 44.8956 7.0022 45.8173 7.92391C46.739 8.84521 47.3097 9.72249 47.7874 10.952C48.1479 11.8799 48.5771 13.2744 48.6943 15.842C48.8211 18.6191 48.8478 19.4519 48.8478 26.4837C48.8478 33.5154 48.8211 34.3483 48.6943 37.1249C48.5771 39.6926 48.1483 41.0871 47.7874 42.0149C47.3097 43.244 46.739 44.1213 45.8173 45.043C44.896 45.9647 44.0187 46.5354 42.7892 47.0132C41.8613 47.3736 40.4668 47.8028 37.8992 47.9201C35.1225 48.0468 34.2897 48.0736 27.2579 48.0736C20.2258 48.0736 19.3929 48.0468 16.6163 47.9201C14.0486 47.8028 12.6541 47.374 11.7262 47.0132C10.4972 46.5354 9.61989 45.9647 8.69817 45.043C7.77687 44.1217 7.20574 43.2444 6.72801 42.0149C6.36756 41.0871 5.93838 39.6926 5.82111 37.1249C5.69438 34.3479 5.66763 33.515 5.66763 26.4837C5.66763 19.4519 5.69438 18.6191 5.82111 15.842C5.93838 13.2744 6.36715 11.8799 6.72801 10.952C7.20574 9.7229 7.77646 8.84562 8.69817 7.92391C9.61948 7.0022 10.4967 6.43148 11.7262 5.95375C12.6541 5.59329 14.0486 5.16412 16.6163 5.04685C19.3933 4.92011 20.2262 4.89337 27.2579 4.89337ZM27.2579 0.148193C20.106 0.148193 19.209 0.178643 16.4002 0.306613C13.5972 0.434583 11.6826 0.879803 10.0079 1.53076C8.276 2.20353 6.80743 3.10426 5.34339 4.5683C3.87934 6.03234 2.97862 7.50091 2.30585 9.23283C1.65489 10.908 1.20967 12.8222 1.0817 15.6252C0.953728 18.4339 0.923279 19.3309 0.923279 26.4828C0.923279 33.6348 0.953728 34.5318 1.0817 37.3405C1.20967 40.1435 1.65489 42.0577 2.30585 43.7329C2.97862 45.4648 3.87934 46.9334 5.34339 48.3974C6.80743 49.8614 8.276 50.7618 10.0079 51.4349C11.683 52.0859 13.5972 52.5311 16.4002 52.6591C19.209 52.7871 20.106 52.8175 27.2579 52.8175C34.4098 52.8175 35.3069 52.7871 38.1156 52.6591C40.9186 52.5311 42.8328 52.0859 44.508 51.4349C46.2399 50.7618 47.7084 49.8614 49.1725 48.3974C50.6365 46.9334 51.5368 45.4648 52.21 43.7329C52.861 42.0577 53.3062 40.1435 53.4342 37.3405C53.5621 34.5318 53.5926 33.6348 53.5926 26.4828C53.5926 19.3309 53.5621 18.4339 53.4342 15.6252C53.3062 12.8222 52.861 10.908 52.21 9.23283C51.5368 7.50091 50.6365 6.03234 49.1725 4.5683C47.7084 3.10426 46.2399 2.20394 44.508 1.53076C42.8328 0.879803 40.9186 0.434583 38.1156 0.306613C35.3069 0.178643 34.4098 0.148193 27.2579 0.148193Z" fill="url(#paint0_radial_4_566)"/>
</g>
<defs>
<radialGradient id="paint0_radial_4_566" cx="0" cy="0" r="1" gradientUnits="userSpaceOnUse" gradientTransform="translate(8.78709 53.0004) scale(67.2982)">
<stop stop-color="#FFB140"/>
<stop offset="0.2559" stop-color="#FF5445"/>
<stop offset="0.599" stop-color="#FC2B82"/>
<stop offset="1" stop-color="#8E40B7"/>
</radialGradient>
<clipPath id="clip0_4_566">
<rect width="52.6693" height="52.6693" fill="white" transform="translate(0.923279 0.148193)"/>
</clipPath>
</defs>
</svg>
