<svg width="59" height="59" viewBox="0 0 59 59" fill="none" xmlns="http://www.w3.org/2000/svg">
<path d="M45.5393 44.51C44.4305 44.514 43.3318 44.298 42.3069 43.8744C41.282 43.4508 40.351 42.8281 39.5679 42.0422L30.9423 33.4004C30.6372 33.1083 30.2313 32.9453 29.8092 32.9453C29.3871 32.9453 28.9812 33.1083 28.6761 33.4004L20.0214 42.0659C19.2387 42.853 18.308 43.477 17.2831 43.9018C16.2582 44.3266 15.1593 44.5439 14.05 44.541H12.3613L23.2913 55.4846C24.9306 57.1224 27.1518 58.0422 29.4676 58.0422C31.7835 58.0422 34.0047 57.1224 35.644 55.4846L46.5958 44.5173L45.5393 44.51Z" fill="#32BCAD"/>
<path d="M14.0518 13.9701C15.1611 13.9672 16.26 14.1844 17.285 14.6092C18.3099 15.0341 19.2406 15.6581 20.0232 16.4452L28.678 25.1125C28.9788 25.4128 29.3862 25.5814 29.811 25.5814C30.2358 25.5814 30.6433 25.4128 30.9441 25.1125L39.5679 16.4781C40.3498 15.6899 41.2804 15.0651 42.3054 14.6399C43.3305 14.2148 44.4297 13.9976 45.5393 14.0012H46.5776L35.6258 3.03569C34.8148 2.2234 33.8519 1.57904 32.7922 1.13941C31.7324 0.699786 30.5965 0.473511 29.4494 0.473511C28.3023 0.473511 27.1664 0.699786 26.1067 1.13941C25.0469 1.57904 24.0841 2.2234 23.2731 3.03569L12.3613 13.9701H14.0518Z" fill="#32BCAD"/>
<path d="M55.6367 23.0732L49.0186 16.4469C48.8693 16.508 48.7098 16.5402 48.5486 16.5418H45.5392C43.9732 16.5457 42.4721 17.1684 41.3621 18.2745L32.7384 26.9035C31.9617 27.6797 30.9092 28.1156 29.8119 28.1156C28.7145 28.1156 27.662 27.6797 26.8854 26.9035L18.2288 18.2417C17.1192 17.1349 15.618 16.5115 14.0518 16.5071H10.3574C10.2052 16.5037 10.0547 16.4734 9.91296 16.4177L3.25296 23.0732C1.61717 24.7146 0.698486 26.9386 0.698486 29.2573C0.698486 31.576 1.61717 33.8 3.25296 35.4413L9.89839 42.095C10.0399 42.0383 10.1905 42.008 10.3429 42.0056H14.0518C15.618 42.001 17.1191 41.3777 18.2288 40.2711L26.8836 31.6056C28.4484 30.0407 31.1754 30.0407 32.7384 31.6056L41.3621 40.2382C42.4721 41.3443 43.9732 41.9671 45.5392 41.971H48.5486C48.7099 41.9721 48.8694 42.0043 49.0186 42.0658L55.6367 35.4395C56.448 34.6275 57.0915 33.6634 57.5306 32.6024C57.9697 31.5413 58.1957 30.404 58.1957 29.2555C58.1957 28.1069 57.9697 26.9696 57.5306 25.9085C57.0915 24.8475 56.448 23.8834 55.6367 23.0714" fill="#32BCAD"/>
</svg>
