<svg width="56" height="45" viewBox="0 0 56 45" fill="none" xmlns="http://www.w3.org/2000/svg">
<path d="M55.1236 5.25009C53.098 6.1473 50.9193 6.74596 48.6211 7.02921C50.9576 5.64205 52.755 3.42963 53.5987 0.816068C51.4123 2.09759 48.9901 3.0392 46.4133 3.53527C44.3555 1.35348 41.4204 0 38.1684 0C31.9216 0 26.8583 5.0189 26.8583 11.2075C26.8583 12.0833 26.9609 12.9361 27.1538 13.7645C17.756 13.2929 9.42076 8.82517 3.84455 2.04553C2.86466 3.70216 2.31347 5.64205 2.31347 7.68911C2.31347 11.5796 4.30541 15.0046 7.34308 17.0226C5.48894 16.9659 3.7435 16.45 2.21548 15.6232C2.21548 15.6569 2.21548 15.7074 2.21548 15.7549C2.21548 21.1917 6.11515 25.7192 11.2841 26.7496C10.3394 27.0083 9.34115 27.1523 8.31226 27.1523C7.58193 27.1523 6.86998 27.0696 6.18099 26.9456C7.62021 31.3888 11.7955 34.6362 16.7424 34.7327C12.8718 37.7336 7.99685 39.5311 2.69624 39.5311C1.78065 39.5311 0.884967 39.479 0 39.3718C5.00818 42.5427 10.9549 44.4015 17.338 44.4015C38.1378 44.4015 49.5168 27.3207 49.5168 12.5028C49.5168 12.0175 49.5015 11.5337 49.4785 11.056C51.6986 9.48813 53.6124 7.50997 55.1236 5.25009Z" fill="#03A9F4"/>
</svg>
